<?xml version="1.0" encoding="UTF-8"?>
<svg width="60px" height="60px" viewBox="0 0 60 60" version="1.1" xmlns="http://www.w3.org/2000/svg" xmlns:xlink="http://www.w3.org/1999/xlink">
    <!-- Generator: Sketch 50.2 (55047) - http://www.bohemiancoding.com/sketch -->
    <title>external bank</title>
    <desc>Created with Sketch.</desc>
    <defs>
        <rect id="path-1" x="0" y="0" width="64" height="64"></rect>
        <polygon id="path-3" points="0 60.9994 60 60.9994 60 0.9994 0 0.9994"></polygon>
    </defs>
    <g id="5.-Icons-&amp;-Assets" stroke="none" stroke-width="1" fill="none" fill-rule="evenodd">
        <g id="Icons" transform="translate(-465.000000, -5857.000000)">
            <g id="product-icons" transform="translate(165.000000, 2539.000000)">
                <g id="Group-Copy-86" transform="translate(233.000000, 3276.000000)">
                    <g id="external-bank" transform="translate(65.000000, 40.000000)">
                        <g>
                            <mask id="mask-2" fill="white">
                                <use xlink:href="#path-1"></use>
                            </mask>
                            <g id="Mask"></g>
                            <g id="Page-1" mask="url(#mask-2)">
                                <g transform="translate(2.000000, 1.000000)">
                                    <path d="M4.6094,18.9994 L55.5954,18.9994 L30.9834,3.1754 L4.6094,18.9994 Z M58.9994,20.9994 L0.9994,20.9994 C0.5514,20.9994 0.1554,20.6994 0.0374,20.2654 C-0.0846,19.8334 0.0994,19.3734 0.4854,19.1414 L30.4854,1.1414 C30.8134,0.9474 31.2234,0.9534 31.5414,1.1594 L59.5414,19.1594 C59.9134,19.3974 60.0834,19.8554 59.9594,20.2814 C59.8334,20.7074 59.4434,20.9994 58.9994,20.9994 Z" id="Fill-1" stroke="none" fill="#282828" fill-rule="evenodd"></path>
                                    <mask id="mask-4" fill="white">
                                        <use xlink:href="#path-3"></use>
                                    </mask>
                                    <g id="Clip-4" stroke="none" fill="none"></g>
                                    <path d="M2,58.9994 L58,58.9994 L58,52.9994 L2,52.9994 L2,58.9994 Z M59,60.9994 L1,60.9994 C0.448,60.9994 0,60.5514 0,59.9994 L0,51.9994 C0,51.4474 0.448,50.9994 1,50.9994 L59,50.9994 C59.552,50.9994 60,51.4474 60,51.9994 L60,59.9994 C60,60.5514 59.552,60.9994 59,60.9994 Z" id="Fill-3" stroke="none" fill="#282828" fill-rule="evenodd" mask="url(#mask-4)"></path>
                                    <path d="M10,46.9994 L14,46.9994 L14,24.9994 L10,24.9994 L10,46.9994 Z M15,48.9994 L9,48.9994 C8.448,48.9994 8,48.5514 8,47.9994 L8,23.9994 C8,23.4474 8.448,22.9994 9,22.9994 L15,22.9994 C15.552,22.9994 16,23.4474 16,23.9994 L16,47.9994 C16,48.5514 15.552,48.9994 15,48.9994 Z" id="Fill-5" stroke="none" fill="#282828" fill-rule="evenodd" mask="url(#mask-4)"></path>
                                    <path d="M9,24.9994 L7,24.9994 C6.448,24.9994 6,24.5514 6,23.9994 C6,23.4474 6.448,22.9994 7,22.9994 L9,22.9994 C9.552,22.9994 10,23.4474 10,23.9994 C10,24.5514 9.552,24.9994 9,24.9994" id="Fill-6" stroke="none" fill="#282828" fill-rule="evenodd" mask="url(#mask-4)"></path>
                                    <path d="M9,48.9994 L7,48.9994 C6.448,48.9994 6,48.5514 6,47.9994 C6,47.4474 6.448,46.9994 7,46.9994 L9,46.9994 C9.552,46.9994 10,47.4474 10,47.9994 C10,48.5514 9.552,48.9994 9,48.9994" id="Fill-7" stroke="none" fill="#282828" fill-rule="evenodd" mask="url(#mask-4)"></path>
                                    <path d="M17,48.9994 L15,48.9994 C14.448,48.9994 14,48.5514 14,47.9994 C14,47.4474 14.448,46.9994 15,46.9994 L17,46.9994 C17.552,46.9994 18,47.4474 18,47.9994 C18,48.5514 17.552,48.9994 17,48.9994" id="Fill-8" stroke="none" fill="#282828" fill-rule="evenodd" mask="url(#mask-4)"></path>
                                    <path d="M17,24.9994 L15,24.9994 C14.448,24.9994 14,24.5514 14,23.9994 C14,23.4474 14.448,22.9994 15,22.9994 L17,22.9994 C17.552,22.9994 18,23.4474 18,23.9994 C18,24.5514 17.552,24.9994 17,24.9994" id="Fill-9" stroke="none" fill="#282828" fill-rule="evenodd" mask="url(#mask-4)"></path>
                                    <path d="M28,46.9994 L32,46.9994 L32,24.9994 L28,24.9994 L28,46.9994 Z M33,48.9994 L27,48.9994 C26.448,48.9994 26,48.5514 26,47.9994 L26,23.9994 C26,23.4474 26.448,22.9994 27,22.9994 L33,22.9994 C33.552,22.9994 34,23.4474 34,23.9994 L34,47.9994 C34,48.5514 33.552,48.9994 33,48.9994 Z" id="Fill-10" stroke="none" fill="#282828" fill-rule="evenodd" mask="url(#mask-4)"></path>
                                    <path d="M27,24.9994 L25,24.9994 C24.448,24.9994 24,24.5514 24,23.9994 C24,23.4474 24.448,22.9994 25,22.9994 L27,22.9994 C27.552,22.9994 28,23.4474 28,23.9994 C28,24.5514 27.552,24.9994 27,24.9994" id="Fill-11" stroke="none" fill="#282828" fill-rule="evenodd" mask="url(#mask-4)"></path>
                                    <path d="M27,48.9994 L25,48.9994 C24.448,48.9994 24,48.5514 24,47.9994 C24,47.4474 24.448,46.9994 25,46.9994 L27,46.9994 C27.552,46.9994 28,47.4474 28,47.9994 C28,48.5514 27.552,48.9994 27,48.9994" id="Fill-12" stroke="none" fill="#282828" fill-rule="evenodd" mask="url(#mask-4)"></path>
                                    <path d="M35,48.9994 L33,48.9994 C32.448,48.9994 32,48.5514 32,47.9994 C32,47.4474 32.448,46.9994 33,46.9994 L35,46.9994 C35.552,46.9994 36,47.4474 36,47.9994 C36,48.5514 35.552,48.9994 35,48.9994" id="Fill-13" stroke="none" fill="#282828" fill-rule="evenodd" mask="url(#mask-4)"></path>
                                    <path d="M35,24.9994 L33,24.9994 C32.448,24.9994 32,24.5514 32,23.9994 C32,23.4474 32.448,22.9994 33,22.9994 L35,22.9994 C35.552,22.9994 36,23.4474 36,23.9994 C36,24.5514 35.552,24.9994 35,24.9994" id="Fill-14" stroke="none" fill="#282828" fill-rule="evenodd" mask="url(#mask-4)"></path>
                                    <path d="M46,46.9994 L50,46.9994 L50,24.9994 L46,24.9994 L46,46.9994 Z M51,48.9994 L45,48.9994 C44.448,48.9994 44,48.5514 44,47.9994 L44,23.9994 C44,23.4474 44.448,22.9994 45,22.9994 L51,22.9994 C51.552,22.9994 52,23.4474 52,23.9994 L52,47.9994 C52,48.5514 51.552,48.9994 51,48.9994 Z" id="Fill-15" stroke="none" fill="#282828" fill-rule="evenodd" mask="url(#mask-4)"></path>
                                    <path d="M45,24.9994 L43,24.9994 C42.448,24.9994 42,24.5514 42,23.9994 C42,23.4474 42.448,22.9994 43,22.9994 L45,22.9994 C45.552,22.9994 46,23.4474 46,23.9994 C46,24.5514 45.552,24.9994 45,24.9994" id="Fill-16" stroke="none" fill="#282828" fill-rule="evenodd" mask="url(#mask-4)"></path>
                                    <path d="M45,48.9994 L43,48.9994 C42.448,48.9994 42,48.5514 42,47.9994 C42,47.4474 42.448,46.9994 43,46.9994 L45,46.9994 C45.552,46.9994 46,47.4474 46,47.9994 C46,48.5514 45.552,48.9994 45,48.9994" id="Fill-17" stroke="none" fill="#282828" fill-rule="evenodd" mask="url(#mask-4)"></path>
                                    <path d="M53,48.9994 L51,48.9994 C50.448,48.9994 50,48.5514 50,47.9994 C50,47.4474 50.448,46.9994 51,46.9994 L53,46.9994 C53.552,46.9994 54,47.4474 54,47.9994 C54,48.5514 53.552,48.9994 53,48.9994" id="Fill-18" stroke="none" fill="#282828" fill-rule="evenodd" mask="url(#mask-4)"></path>
                                    <path d="M53,24.9994 L51,24.9994 C50.448,24.9994 50,24.5514 50,23.9994 C50,23.4474 50.448,22.9994 51,22.9994 L53,22.9994 C53.552,22.9994 54,23.4474 54,23.9994 C54,24.5514 53.552,24.9994 53,24.9994" id="Fill-19" stroke="none" fill="#282828" fill-rule="evenodd" mask="url(#mask-4)"></path>
                                </g>
                            </g>
                        </g>
                    </g>
                </g>
            </g>
        </g>
    </g>
</svg>