<?xml version="1.0" encoding="UTF-8"?>
<svg width="140px" height="255px" viewBox="0 0 140 255" version="1.1" xmlns="http://www.w3.org/2000/svg" xmlns:xlink="http://www.w3.org/1999/xlink">
    <!-- Generator: Sketch 50.2 (55047) - http://www.bohemiancoding.com/sketch -->
    <title>car</title>
    <desc>Created with Sketch.</desc>
    <defs>
        <polygon id="path-1" points="0.990037736 0.708618557 115.89966 0.708618557 115.89966 254.680016 0.990037736 254.680016"></polygon>
        <polygon id="path-3" points="0.370814189 0.479352869 20.6048302 0.479352869 20.6048302 18.0363372 0.370814189 18.0363372"></polygon>
    </defs>
    <g id="SSIP-v02" stroke="none" stroke-width="1" fill="none" fill-rule="evenodd">
        <g id="EW_eligibility" transform="translate(-185.000000, -353.000000)">
            <g id="car" transform="translate(185.000000, 352.000000)">
                <g id="Group-3" transform="translate(11.886792, 0.610969)">
                    <mask id="mask-2" fill="white">
                        <use xlink:href="#path-1"></use>
                    </mask>
                    <g id="Clip-2"></g>
                    <path d="M76.1462642,254.680016 L40.7421132,254.680016 C18.7872075,254.680016 0.990037736,237.381542 0.990037736,216.042491 L0.990037736,39.3457485 C0.990037736,18.0066969 18.7872075,0.70822268 40.7421132,0.70822268 L76.1462642,0.70822268 C98.1011698,0.70822268 115.89966,18.0066969 115.89966,39.3457485 L115.89966,216.042491 C115.89966,237.381542 98.1011698,254.680016 76.1462642,254.680016" id="Fill-1" fill="#C6CCD4" mask="url(#mask-2)"></path>
                </g>
                <path d="M95.2495283,60.2742763 C88.9178302,59.9034722 81.7078302,59.7094928 75.904434,59.6092041 L75.9216038,59.4983588 C75.9216038,59.4983588 73.7714151,59.4996784 70.4457547,59.532668 C67.1187736,59.4996784 64.9699057,59.4983588 64.9699057,59.4983588 L64.9870755,59.6092041 C59.1823585,59.7094928 51.9723585,59.9034722 45.6406604,60.2742763 C32.4423585,61.0501938 19.3985849,65.8587711 20.6414151,71.4445856 C23.7465094,87.7362144 31.045,108.213575 31.045,108.213575 L70.4457547,89.4464 L109.846509,108.213575 C109.846509,108.213575 117.143679,87.7362144 120.250094,71.4445856 C121.491604,65.8587711 108.44783,61.0501938 95.2495283,60.2742763" id="Fill-4" fill="#C6CCD4"></path>
                <path d="M19.238137,94.591715 L8.18807947,103.182845 C6.02088224,104.867592 2.87050133,104.514443 1.15020577,102.39447 L1.0873085,102.315632 C-0.634090524,100.195659 -0.272155345,97.1123558 1.89393843,95.4276088 L12.943996,86.8364786 C15.1100898,85.1528115 18.2615741,85.5070403 19.9818697,87.6270138 L20.044767,87.7036913 C21.766166,89.8236648 21.4042308,92.9080479 19.238137,94.591715" id="Fill-6" fill="#C6CCD4"></path>
                <g id="Group-10" transform="translate(118.867925, 85.773196)">
                    <mask id="mask-4" fill="white">
                        <use xlink:href="#path-3"></use>
                    </mask>
                    <g id="Clip-9"></g>
                    <path d="M2.18368302,8.86003391 L12.7655698,17.0246158 C14.839683,18.6257155 17.8562868,18.2901003 19.5045887,16.2753833 L19.5637585,16.20046 C21.2120604,14.185743 20.8665509,11.2555253 18.7924377,9.65442566 L8.21055094,1.48984376 C6.13643774,-0.110229553 3.11983396,0.226411913 1.47153208,2.24112898 L1.41236226,2.31399954 C-0.235939623,4.32871661 0.109569811,7.2599606 2.18368302,8.86003391" id="Fill-8" fill="#C6CCD4" mask="url(#mask-4)"></path>
                </g>
                <path d="M109.899075,72.4972206 C103.035113,70.4637361 90.447,67.9670763 70.6753019,68.3431588 L70.2090755,68.3431588 C50.4373774,67.9670763 37.8492642,70.4637361 30.9853019,72.4972206 C27.2145472,73.6149113 24.9309623,77.4087258 25.6824717,81.2658804 L30.6881321,106.929221 C31.4898302,111.041056 35.4600189,113.755447 39.5754906,112.957097 C52.0896415,110.527736 88.7947358,110.527736 101.308887,112.957097 C105.424358,113.755447 109.394547,111.041056 110.197566,106.929221 L115.201906,81.2658804 C115.954736,77.4087258 113.668509,73.6149113 109.899075,72.4972206" id="Fill-11" fill="#DBE0E7"></path>
                <path d="M110.196906,99.481732 C109.395208,103.593567 105.425019,106.309278 101.309547,105.509608 C88.7953962,103.082887 52.0889811,103.082887 39.5761509,105.509608 C35.4593585,106.309278 31.4904906,103.593567 30.6874717,99.481732 L26.2391698,76.6726598 C25.6091698,78.0701031 25.3687925,79.657567 25.6831321,81.2648247 L30.6874717,106.929485 C31.4904906,111.04132 35.4593585,113.754392 39.5761509,112.957361 C52.0889811,110.528 88.7953962,110.528 101.309547,112.957361 C105.425019,113.754392 109.395208,111.04132 110.196906,106.929485 L115.201245,81.2648247 C115.515585,79.657567 115.276528,78.0701031 114.645208,76.6726598 L110.196906,99.481732 Z" id="Fill-15" fill="#B2B7BD"></path>
                <path d="M23.838434,98.5706887 L28.2827736,116.332338 C28.3514528,116.608132 28.3871132,116.890524 28.3871132,117.175555 L28.3871132,184.10108 C28.3871132,184.80574 28.2576792,185.502482 28.0040943,186.160957 L23.849,196.971019 C23.2559811,198.514936 20.9618302,198.084751 20.9697547,196.431307 L21.5125849,98.8517608 C21.5191887,97.4635546 23.5016415,97.2233897 23.838434,98.5706887" id="Fill-17" fill="#DBE0E7"></path>
                <path d="M28.2830377,116.332338 L23.8386981,98.5706887 C23.5019057,97.2247093 21.5181321,97.4635546 21.5128491,98.8517608 L21.5062453,100.415472 L25.4883208,116.332338 C25.557,116.608132 25.5913396,116.890524 25.5913396,117.175555 L25.5913396,184.10108 C25.5913396,184.80574 25.4619057,185.502482 25.2096415,186.159637 L21.0611509,196.956503 C21.4811509,198.154689 23.3262453,198.335472 23.8505849,196.971019 L28.0043585,186.159637 C28.2566226,185.502482 28.3873774,184.80574 28.3873774,184.10108 L28.3873774,117.175555 C28.3873774,116.890524 28.351717,116.608132 28.2830377,116.332338" id="Fill-19" fill="#B2B7BD"></path>
                <path d="M116.823925,98.5706887 L112.379585,116.332338 C112.309585,116.608132 112.275245,116.890524 112.275245,117.175555 L112.275245,184.10108 C112.275245,184.80574 112.404679,185.502482 112.658264,186.160957 L116.812038,196.971019 C117.405057,198.514936 119.700528,198.084751 119.692604,196.431307 L119.149774,98.8517608 C119.144491,97.4635546 117.160717,97.2233897 116.823925,98.5706887" id="Fill-21" fill="#DBE0E7"></path>
                <path d="M119.530019,196.971414 L115.374925,186.160033 C115.12266,185.502878 114.991906,184.804816 114.991906,184.101476 L114.991906,117.174631 C114.991906,116.8896 115.027566,116.608528 115.097566,116.332734 L119.156245,100.112363 L119.149642,98.8521567 C119.143038,97.4639505 117.160585,97.2237856 116.823792,98.5710845 L112.379453,116.332734 C112.309453,116.608528 112.275113,116.8896 112.275113,117.174631 L112.275113,184.101476 C112.275113,184.804816 112.404547,185.502878 112.658132,186.160033 L116.811906,196.971414 C117.324358,198.302878 119.095491,198.159043 119.568321,197.036074 C119.557755,197.011002 119.540585,196.997806 119.530019,196.971414" id="Fill-23" fill="#B2B7BD"></path>
                <path d="M112.926245,224.010161 C111.34134,219.567109 110.080019,216.050408 109.142283,213.444223 C108.113415,210.583357 104.889453,209.253212 102.098698,210.463274 C96.7113396,212.798944 86.8030377,215.911852 71.5549245,216.437047 C56.3068113,215.911852 46.3998302,212.798944 41.0124717,210.463274 C38.2203962,209.253212 34.9977547,210.583357 33.967566,213.444223 C33.0311509,216.050408 31.7698302,219.567109 30.1849245,224.010161 C29.0741698,227.121748 29.8005849,230.672759 32.2083208,232.935852 C43.676434,243.710285 99.4334151,243.710285 110.901528,232.935852 C113.310585,230.672759 114.037,227.121748 112.926245,224.010161" id="Fill-25" fill="#DBE0E7"></path>
                <path d="M33.9678302,219.650639 C34.9966981,216.789773 38.2206604,215.458309 41.0114151,216.668371 C46.4000943,219.005361 56.3070755,222.118268 71.5551887,222.642144 C86.8019811,222.118268 96.710283,219.005361 102.097642,216.668371 C104.889717,215.458309 108.113679,216.789773 109.141226,219.650639 C110.065755,222.214598 111.304623,225.671918 112.855189,230.018639 C113.590849,228.132948 113.630472,225.98466 112.926509,224.010557 C111.341604,219.567505 110.078962,216.049485 109.141226,213.444619 C108.113679,210.583753 104.889717,209.253608 102.097642,210.46367 C96.710283,212.79934 86.8019811,215.912247 71.5551887,216.436124 C56.3070755,215.912247 46.4000943,212.79934 41.0114151,210.46367 C38.2206604,209.253608 34.9966981,210.583753 33.9678302,213.444619 C33.0314151,216.049485 31.7687736,219.567505 30.1838679,224.010557 C29.4799057,225.98466 29.5195283,228.132948 30.2538679,230.018639 C31.8057547,225.671918 33.0459434,222.214598 33.9678302,219.650639" id="Fill-27" fill="#B2B7BD"></path>
                <path d="M95.1759623,200.784627 L45.4865283,200.784627 C39.9974717,200.784627 35.5478491,196.338936 35.5478491,190.85473 L35.5478491,128.331348 C35.5478491,122.847142 39.9974717,118.401452 45.4865283,118.401452 L95.1759623,118.401452 C100.665019,118.401452 105.113321,122.847142 105.113321,128.331348 L105.113321,190.85473 C105.113321,196.338936 100.665019,200.784627 95.1759623,200.784627" id="Fill-29" fill="#DBE0E7"></path>
                <path d="M121.729075,29.2458887 L98.7479434,6.69809485 C98.7479434,6.69809485 79.4926604,3.59574433 69.7613396,4.21595052 L69.1920943,4.21595052 C59.4607736,3.59574433 40.2068113,6.69809485 40.2068113,6.69809485 L17.2243585,29.2458887 C17.2243585,29.2458887 14.3054906,38.1306722 18.5266226,59.3351258 C18.9479434,61.4491052 21.3913396,62.5958268 23.2139811,61.439868 C35.1192642,53.8957856 65.3619057,54.6888577 65.3619057,54.6888577 L73.5928491,54.6888577 C73.5928491,54.6888577 103.83417,53.8957856 115.739453,61.439868 C117.562094,62.5958268 120.005491,61.4491052 120.426811,59.3351258 C124.649264,38.1306722 121.729075,29.2458887 121.729075,29.2458887" id="Fill-31" fill="#DBE0E7"></path>
                <path d="M36.4204717,6.13251959 C30.3146226,8.79412784 20.5436792,14.7916536 17.319717,26.716767 C16.7782075,28.7185814 16.8627358,30.9104165 17.9827358,32.6575505 C19.4831132,34.9971794 22.6212264,36.8472412 28.5091509,33.4862515 C35.6927358,28.9904165 41.189717,18.0602722 42.1116038,10.3248495 C42.4814151,7.21458144 39.2931132,4.88155052 36.4204717,6.13251959" id="Fill-33" fill="#B2B7BD"></path>
                <path d="M103.126245,5.4083299 C109.230774,8.06993814 119.003038,14.0674639 122.227,25.9925773 C122.768509,27.9943918 122.683981,30.1862268 121.563981,31.9333608 C120.063604,34.2729897 116.925491,36.1230515 111.037566,32.7620619 C103.855302,28.2662268 98.357,17.3360825 97.4351132,9.60065979 C97.0653019,6.49171134 100.253604,4.15736082 103.126245,5.4083299" id="Fill-35" fill="#B2B7BD"></path>
            </g>
        </g>
    </g>
</svg>