<?xml version="1.0" encoding="UTF-8"?>
<svg width="64px" height="64px" viewBox="0 0 64 64" version="1.1" xmlns="http://www.w3.org/2000/svg" xmlns:xlink="http://www.w3.org/1999/xlink">
    <!-- Generator: Sketch 50.2 (55047) - http://www.bohemiancoding.com/sketch -->
    <title>pdf_icon</title>
    <desc>Created with Sketch.</desc>
    <defs>
        <rect id="path-1" x="0" y="0" width="64" height="64"></rect>
    </defs>
    <g id="5.-Icons-&amp;-Assets" stroke="none" stroke-width="1" fill="none" fill-rule="evenodd">
        <g id="Icons" transform="translate(-1163.000000, -1929.000000)">
            <g id="Utility-Icons" transform="translate(165.000000, 485.000000)">
                <g id="Group-Copy-102" transform="translate(933.000000, 1404.000000)">
                    <g id="pdf_icon" transform="translate(65.000000, 40.000000)">
                        <mask id="mask-2" fill="white">
                            <use xlink:href="#path-1"></use>
                        </mask>
                        <g id="Mask"></g>
                        <g mask="url(#mask-2)" fill="#C41C30" fill-rule="nonzero" id="Shape">
                            <path d="M29.5111111,19.9111111 C29.8666667,19.9111111 29.8666667,19.9111111 29.5111111,19.9111111 C29.8666667,18.4888889 30.2222222,17.7777778 30.2222222,16.7111111 L30.2222222,16 C30.5777778,14.2222222 30.5777778,12.8 30.2222222,12.4444444 C30.2222222,12.4444444 30.2222222,12.4444444 30.2222222,12.0888889 L29.8666667,11.7333333 C29.8666667,11.7333333 29.8666667,11.7333333 29.8666667,11.7333333 C29.8666667,11.7333333 29.8666667,11.7333333 29.8666667,11.7333333 C29.8666667,11.7333333 29.8666667,12.0888889 29.5111111,12.0888889 C28.8,14.2222222 28.8,16.7111111 29.5111111,19.9111111 C29.5111111,19.9111111 29.5111111,19.9111111 29.5111111,19.9111111 Z M18.8444444,44.4444444 C18.1333333,44.8 17.4222222,45.1555556 17.0666667,45.5111111 C14.5777778,47.6444444 12.8,50.1333333 12.4444444,51.2 C12.4444444,51.2 12.4444444,51.2 12.4444444,51.2 C12.4444444,51.2 12.4444444,51.2 12.4444444,51.2 C12.4444444,51.2 12.4444444,51.2 12.4444444,51.2 C14.5777778,50.8444444 16.7111111,48.7111111 18.8444444,44.4444444 C19.2,44.4444444 19.2,44.4444444 18.8444444,44.4444444 C19.2,44.4444444 18.8444444,44.4444444 18.8444444,44.4444444 Z M51.5555556,39.1111111 C51.2,38.7555556 49.7777778,37.6888889 44.8,37.6888889 C44.4444444,37.6888889 44.4444444,37.6888889 44.0888889,37.6888889 C44.0888889,37.6888889 44.0888889,37.6888889 44.0888889,37.6888889 C44.0888889,37.6888889 44.0888889,37.6888889 44.0888889,38.0444444 C46.5777778,39.1111111 49.0666667,39.8222222 50.8444444,39.8222222 C51.2,39.8222222 51.2,39.8222222 51.5555556,39.8222222 C51.5555556,39.8222222 51.9111111,39.8222222 51.9111111,39.8222222 C51.9111111,39.8222222 51.9111111,39.8222222 51.9111111,39.4666667 C51.9111111,39.4666667 51.9111111,39.4666667 51.9111111,39.4666667 C51.9111111,39.4666667 51.5555556,39.4666667 51.5555556,39.1111111 Z M56.8888889,0 L7.11111111,0 C3.2,0 0,3.2 0,7.11111111 L0,56.8888889 C0,60.8 3.2,64 7.11111111,64 L56.8888889,64 C60.8,64 64,60.8 64,56.8888889 L64,7.11111111 C64,3.2 60.8,0 56.8888889,0 Z M52.9777778,41.9555556 C52.2666667,42.3111111 51.2,42.6666667 49.7777778,42.6666667 C46.9333333,42.6666667 42.6666667,41.9555556 39.1111111,40.1777778 C33.0666667,40.8888889 28.4444444,41.6 24.8888889,43.0222222 C24.5333333,43.0222222 24.5333333,43.0222222 24.1777778,43.3777778 C19.9111111,50.8444444 16.3555556,54.4 13.5111111,54.4 C12.8,54.4 12.4444444,54.4 12.0888889,54.0444444 L10.3111111,52.9777778 L10.3111111,52.6222222 C9.95555556,51.9111111 9.95555556,51.5555556 9.95555556,50.8444444 C10.3111111,49.0666667 12.4444444,45.8666667 16.7111111,43.3777778 C17.4222222,43.0222222 18.4888889,42.3111111 19.9111111,41.6 C20.9777778,39.8222222 22.0444444,37.6888889 23.4666667,35.2 C25.2444444,31.6444444 26.3111111,28.0888889 27.3777778,24.8888889 C25.9555556,20.6222222 25.2444444,18.1333333 26.6666667,13.1555556 C27.0222222,11.7333333 28.0888889,10.3111111 29.5111111,10.3111111 L30.2222222,10.3111111 C30.9333333,10.3111111 31.6444444,10.6666667 32.3555556,11.0222222 C34.8444444,13.5111111 33.7777778,19.2 32.3555556,23.8222222 C32.3555556,24.1777778 32.3555556,24.1777778 32.3555556,24.1777778 C33.7777778,28.0888889 35.9111111,31.2888889 38.0444444,33.4222222 C39.1111111,34.1333333 39.8222222,34.8444444 41.2444444,35.5555556 C43.0222222,35.5555556 44.4444444,35.2 45.8666667,35.2 C50.1333333,35.2 52.9777778,35.9111111 54.0444444,37.6888889 C54.4,38.4 54.4,39.1111111 54.4,39.8222222 C54.0444444,40.1777778 53.6888889,41.2444444 52.9777778,41.9555556 Z M29.8666667,28.0888889 C29.1555556,30.5777778 27.7333333,33.4222222 26.3111111,36.6222222 C25.6,38.0444444 24.8888889,39.1111111 24.1777778,40.5333333 C24.1777778,40.5333333 24.5333333,40.5333333 24.5333333,40.5333333 L24.8888889,40.5333333 C29.5111111,38.7555556 33.7777778,37.6888889 36.6222222,37.3333333 C35.9111111,36.9777778 35.5555556,36.6222222 35.2,36.2666667 C33.4222222,34.1333333 31.2888889,31.2888889 29.8666667,28.0888889 Z"></path>
                        </g>
                    </g>
                </g>
            </g>
        </g>
    </g>
</svg>