<?xml version="1.0" encoding="UTF-8"?>
<svg width="206px" height="53px" viewBox="0 0 206 53" version="1.1" xmlns="http://www.w3.org/2000/svg" xmlns:xlink="http://www.w3.org/1999/xlink">
    <!-- Generator: Sketch 50.2 (55047) - http://www.bohemiancoding.com/sketch -->
    <title>PenFed Logo</title>
    <desc>Created with Sketch.</desc>
    <defs>
        <polygon id="path-1" points="174.838431 52.2837838 174.838431 0.393533857 0.0651117167 0.393533857 0.0651117167 52.2837838"></polygon>
        <polygon id="path-3" points="174.838431 52.2837838 174.838431 0.393533857 0.0651117167 0.393533857 0.0651117167 52.2837838"></polygon>
        <polygon id="path-5" points="174.838431 52.2837838 174.838431 0.393533857 0.0651117167 0.393533857 0.0651117167 52.2837838"></polygon>
        <polygon id="path-7" points="174.838431 52.2837838 174.838431 0.393533857 0.0651117167 0.393533857 0.0651117167 52.2837838"></polygon>
    </defs>
    <g id="Symbols" stroke="none" stroke-width="1" fill="none" fill-rule="evenodd">
        <g id="Application-Header-with-logout" transform="translate(-60.000000, -23.000000)">
            <g id="PenFed-Logo">
                <g transform="translate(60.000000, 23.000000)">
                    <g id="PenFed-LogoSVG">
                        <path d="M72.1011223,21.4768291 C74.564142,21.4768291 76.0038967,20.0033259 76.0038967,18.0806319 L76.0038967,18.0165421 C76.0038967,15.8060062 74.4681581,14.6203449 72.0045777,14.6203449 L68.1977875,14.6203449 L68.1977875,21.4768291 L72.1011223,21.4768291 Z M63.2717493,10.1666661 L72.4205067,10.1666661 C77.7630351,10.1666661 80.9939234,13.3391112 80.9939234,17.9204074 L80.9939234,17.9850595 C80.9939234,23.1752088 76.9631715,25.8669804 71.9405889,25.8669804 L68.1977875,25.8669804 L68.1977875,32.5947228 L63.2717493,32.5947228 L63.2717493,10.1666661 Z" id="Fill-1" fill="#002856" fill-rule="nonzero"></path>
                        <polyline id="Fill-2" fill="#002856" fill-rule="nonzero" points="85.7605502 10.1666661 102.650866 10.1666661 102.650866 14.5568173 90.6551553 14.5568173 90.6551553 19.1060687 101.211673 19.1060687 101.211673 23.4956578 90.6551553 23.4956578 90.6551553 28.2056958 102.810839 28.2056958 102.810839 32.5947228 85.7605502 32.5947228 85.7605502 10.1666661"></polyline>
                        <polyline id="Fill-3" fill="#002856" fill-rule="nonzero" points="108.681559 10.1666661 113.223662 10.1666661 123.716752 23.9757691 123.716752 10.1666661 128.579363 10.1666661 128.579363 32.5947228 124.388077 32.5947228 113.544169 18.3369911 113.544169 32.5947228 108.681559 32.5947228 108.681559 10.1666661"></polyline>
                        <polyline id="Fill-4" fill="#00A1DF" fill-rule="nonzero" points="135.333019 10.1666661 152.383308 10.1666661 152.383308 14.6523899 140.258496 14.6523899 140.258496 19.4265177 150.944115 19.4265177 150.944115 23.9122415 140.258496 23.9122415 140.258496 32.5947228 135.333019 32.5947228 135.333019 10.1666661"></polyline>
                        <polyline id="Fill-5" fill="#00A1DF" fill-rule="nonzero" points="157.373897 10.1666661 174.264212 10.1666661 174.264212 14.5568173 162.26794 14.5568173 162.26794 19.1060687 172.825019 19.1060687 172.825019 23.4956578 162.26794 23.4956578 162.26794 28.2056958 174.424186 28.2056958 174.424186 32.5947228 157.373897 32.5947228 157.373897 10.1666661"></polyline>
                        <path d="M185.220943,14.6203449 L185.220943,28.1416061 L189.027733,28.1416061 C193.058485,28.1416061 195.77746,25.4177896 195.77746,21.4447842 L195.77746,21.3812566 C195.77746,17.4082512 193.058485,14.6203449 189.027733,14.6203449 L185.220943,14.6203449 Z M180.294344,10.1666661 L189.027733,10.1666661 C196.06485,10.1666661 200.92746,15.0048838 200.92746,21.3166047 L200.92746,21.3812566 C200.92746,27.6924153 196.06485,32.5947228 189.027733,32.5947228 L180.294344,32.5947228 L180.294344,10.1666661 Z" id="Fill-6" fill="#00A1DF" fill-rule="nonzero"></path>
                        <path d="M62.3809537,44.7076948 L62.3809537,44.6767744 C62.3809537,41.5723544 64.7171171,39.0312501 68.0647575,39.0312501 C70.1197057,39.0312501 71.3500926,39.7176855 72.3621307,40.715575 L70.8364959,42.4780444 C69.9950954,41.7134644 69.1391008,41.2457213 68.0490409,41.2457213 C66.2118801,41.2457213 64.8883161,42.7731948 64.8883161,44.6452916 L64.8883161,44.6767744 C64.8883161,46.5477467 66.1804469,48.1072652 68.0490409,48.1072652 C69.2945831,48.1072652 70.0579618,47.6086016 70.9139564,46.8282801 L72.4401525,48.3726194 C71.3192207,49.5734599 70.0731171,50.3217364 67.971019,50.3217364 C64.7631444,50.3217364 62.3809537,47.8424731 62.3809537,44.7076948" id="Fill-7" fill="#002856" fill-rule="nonzero"></path>
                        <path d="M80.6532101,44.5204852 C81.8212916,44.5204852 82.4903703,43.8964529 82.4903703,42.9767081 L82.4903703,42.9457876 C82.4903703,41.9164155 81.7747027,41.3857069 80.6066212,41.3857069 L78.2238693,41.3857069 L78.2238693,44.5204852 L80.6532101,44.5204852 Z M75.8265228,39.2184598 L80.8092537,39.2184598 C82.1945615,39.2184598 83.2694659,39.6074961 83.985695,40.3254143 C84.5930302,40.9337052 84.9197112,41.7910468 84.9197112,42.8204189 L84.9197112,42.8519016 C84.9197112,44.6138089 83.9699782,45.7213256 82.5841089,46.2362928 L85.2469536,50.1350889 L82.4437822,50.1350889 L80.1081799,46.6416327 L78.2238693,46.6416327 L78.2238693,50.1350889 L75.8265228,50.1350889 L75.8265228,39.2184598 Z" id="Fill-8" fill="#002856" fill-rule="nonzero"></path>
                        <polyline id="Fill-9" fill="#002856" fill-rule="nonzero" points="88.7511989 39.2184598 96.972676 39.2184598 96.972676 41.3547864 91.1333893 41.3547864 91.1333893 43.5686954 96.2721637 43.5686954 96.2721637 45.7061464 91.1333893 45.7061464 91.1333893 47.9987623 97.0506978 47.9987623 97.0506978 50.1350889 88.7511989 50.1350889 88.7511989 39.2184598"></polyline>
                        <path d="M103.337346,41.3857069 L103.337346,47.9672796 L105.190223,47.9672796 C107.152556,47.9672796 108.475559,46.6416327 108.475559,44.7076948 L108.475559,44.6767744 C108.475559,42.7428365 107.152556,41.3857069 105.190223,41.3857069 L103.337346,41.3857069 Z M100.94,39.2184598 L105.190223,39.2184598 C108.615885,39.2184598 110.983482,41.5723544 110.983482,44.6452916 L110.983482,44.6767744 C110.983482,47.7491494 108.615885,50.1350889 105.190223,50.1350889 L100.94,50.1350889 L100.94,39.2184598 Z" id="Fill-10" fill="#002856" fill-rule="nonzero"></path>
                        <polygon id="Fill-11" fill="#002856" fill-rule="nonzero" points="114.787466 50.1350889 117.185373 50.1350889 117.185373 39.2184598 114.787466 39.2184598"></polygon>
                        <polyline id="Fill-12" fill="#002856" fill-rule="nonzero" points="123.789722 41.4323688 120.472392 41.4323688 120.472392 39.2184598 129.503836 39.2184598 129.503836 41.4323688 126.187068 41.4323688 126.187068 50.1350889 123.789722 50.1350889 123.789722 41.4323688"></polyline>
                        <path d="M138.961313,45.4559714 L138.961313,39.2184598 L141.359782,39.2184598 L141.359782,45.3935681 C141.359782,47.171779 142.246649,48.0915238 143.71054,48.0915238 C145.173869,48.0915238 146.061858,47.2032617 146.061858,45.4722749 L146.061858,39.2184598 L148.459766,39.2184598 L148.459766,45.378389 C148.459766,48.6846356 146.606327,50.305995 143.679106,50.305995 C140.751885,50.305995 138.961313,48.6688942 138.961313,45.4559714" id="Fill-13" fill="#002856" fill-rule="nonzero"></path>
                        <polyline id="Fill-14" fill="#002856" fill-rule="nonzero" points="152.641509 39.2184598 154.853063 39.2184598 159.960403 45.940018 159.960403 39.2184598 162.327439 39.2184598 162.327439 50.1350889 160.287646 50.1350889 155.009106 43.1948383 155.009106 50.1350889 152.641509 50.1350889 152.641509 39.2184598"></polyline>
                        <polygon id="Fill-15" fill="#002856" fill-rule="nonzero" points="166.683188 50.1350889 169.079973 50.1350889 169.079973 39.2184598 166.683188 39.2184598"></polygon>
                        <path d="M181.93224,44.7076948 L181.93224,44.6767744 C181.93224,42.8046776 180.560965,41.2457213 178.630627,41.2457213 C176.699727,41.2457213 175.361008,42.7731948 175.361008,44.6452916 L175.361008,44.6767744 C175.361008,46.5477467 176.731161,48.1072652 178.661499,48.1072652 C180.592398,48.1072652 181.93224,46.5792294 181.93224,44.7076948 Z M172.853646,44.7076948 L172.853646,44.6767744 C172.853646,41.5723544 175.298703,39.0312501 178.661499,39.0312501 C182.024855,39.0312501 184.438479,41.5414339 184.438479,44.6452916 L184.438479,44.6767744 C184.438479,47.7795077 181.994545,50.3217364 178.630627,50.3217364 C175.267831,50.3217364 172.853646,47.8109904 172.853646,44.7076948 Z" id="Fill-16" fill="#002856" fill-rule="nonzero"></path>
                        <polyline id="Fill-17" fill="#002856" fill-rule="nonzero" points="188.166687 39.2184598 190.377678 39.2184598 195.484457 45.940018 195.484457 39.2184598 197.852055 39.2184598 197.852055 50.1350889 195.8117 50.1350889 190.533161 43.1948383 190.533161 50.1350889 188.166687 50.1350889 188.166687 39.2184598"></polyline>
                        <g id="Group-23" transform="translate(23.013624, 0.000000)">
                            <g id="Fill-19-Clipped">
                                <mask id="mask-2" fill="white">
                                    <use xlink:href="#path-1"></use>
                                </mask>
                                <g id="path-1"></g>
                                <path d="M30.5300981,18.3729714 L30.5306594,18.3724092 C30.5093297,18.3459862 30.4840708,18.3229363 30.4621798,18.2976378 C30.1478474,17.9142233 29.7684033,17.5892768 29.3277766,17.3452858 C28.818109,17.013593 28.3196676,16.754985 28.0300327,16.5447255 C28.0131935,16.5323573 28.6575749,17.0220259 27.7600436,20.0758486 L27.3828447,21.2525148 C27.2071553,21.7747904 27.1347466,22.0182193 27.111733,22.0986126 L27.0965777,22.1463989 L24.1558855,31.3275437 L18.737019,48.2916639 C17.6312425,51.6192737 16.2414441,52.0791462 16.2414441,52.0791462 C18.0168611,52.508098 19.6003106,52.1089423 19.6699128,52.0898278 L19.6693515,52.0825193 C20.8739183,51.7412693 21.9224414,50.8428877 22.4225668,49.5931366 C22.424812,49.5925744 22.4264959,49.5920122 22.4281798,49.5920122 L31.2519401,22.2953795 C31.6824632,20.8988965 31.3585885,19.4332641 30.5300981,18.3729714" id="Fill-19" fill="#00A1DF" fill-rule="nonzero" mask="url(#mask-2)"></path>
                            </g>
                            <g id="Fill-20-Clipped">
                                <mask id="mask-4" fill="white">
                                    <use xlink:href="#path-3"></use>
                                </mask>
                                <g id="path-1"></g>
                                <path d="M25.9531935,15.0515456 C25.6366158,14.679375 25.2549264,14.3684833 24.8182289,14.1340495 C24.32091,13.8130383 23.8381853,13.5623011 23.5558474,13.3565391 C23.5384469,13.3441709 24.2002289,13.8433967 23.2544251,16.9944785 L22.9367248,17.9816863 C22.7430736,18.5539969 22.6633678,18.8210378 22.6386703,18.9081774 L19.6828229,28.0859492 L13.0700545,48.6722674 C12.0215313,51.6490699 10.7956349,52.0369818 10.7956349,52.0369818 C11.1930409,52.1466091 11.5702398,52.2095745 11.9199346,52.2438682 C13.2333951,52.3669881 14.1247521,52.0740865 14.1247521,52.0740865 C15.3197766,51.7345229 16.3598801,50.8434498 16.8594441,49.6043804 C16.8903161,49.5341065 23.064703,30.5365407 23.064703,30.5365407 L26.7884196,19.1004468 C27.2189428,17.7034016 26.8844033,16.2462019 26.0542289,15.1864715 C26.0065177,15.1251926 25.9829428,15.0864015 25.9531935,15.0515456 Z" id="Fill-20" fill="#00A1DF" fill-rule="nonzero" mask="url(#mask-4)"></path>
                            </g>
                            <g id="Fill-21-Clipped">
                                <mask id="mask-6" fill="white">
                                    <use xlink:href="#path-5"></use>
                                </mask>
                                <g id="path-1"></g>
                                <path d="M21.5693788,11.8661701 C20.8531499,10.9705996 19.6036785,10.4275228 19.0687521,10.0384865 C19.0665068,10.0367999 19.0771717,10.0452328 19.0951335,10.0682827 C19.2062725,10.2150145 19.5935749,10.9745349 18.7409482,13.768063 C18.6685395,14.0041834 18.5893951,14.2521097 18.4990245,14.5180261 C18.208267,15.370308 18.1403488,15.6283538 18.1403488,15.6283538 L15.1749591,24.8190559 L7.37726978,49.0343185 C6.38375477,51.7176572 5.5339346,52.1280568 5.5339346,52.1280568 C5.76294823,52.1719077 6.04023434,52.2123855 6.34277929,52.2416194 L6.33772752,52.2567986 C6.35176022,52.2528633 6.3646703,52.2483657 6.37926431,52.2444304 C6.60771662,52.2657937 6.8479564,52.281535 7.09829973,52.2832216 C9.10890464,52.31358 10.6255586,51.3567305 11.2839727,49.6043804 C11.2890245,49.6004451 11.293515,49.5965097 11.2985668,49.5920122 L18.5680654,27.2780803 L22.3176022,15.793638 C22.7498093,14.390971 22.4135858,12.9230896 21.5693788,11.8661701" id="Fill-21" fill="#00A1DF" fill-rule="nonzero" mask="url(#mask-6)"></path>
                            </g>
                            <g id="Fill-22-Clipped">
                                <mask id="mask-8" fill="white">
                                    <use xlink:href="#path-7"></use>
                                </mask>
                                <g id="path-1"></g>
                                <path d="M6.85637602,1.17610404 C5.65966758,0.331692822 4.1626594,0.190020634 2.89691008,0.657201541 C2.82394006,0.676878233 1.27529155,1.29922392 0.0651117167,2.72212991 C0.0651117167,2.72212991 1.50879564,2.25607338 4.46183651,4.39464879 C5.19097547,4.92198416 5.40539509,5.07883551 5.40539509,5.07883551 L18.4990245,14.517464 L18.7409482,13.768063 C19.5935749,10.9745349 19.2062725,10.2150145 19.0951335,10.0682827 L6.85637602,1.17610404 Z" id="Fill-22" fill="#002856" fill-rule="nonzero" mask="url(#mask-8)"></path>
                            </g>
                        </g>
                        <path d="M41.1539727,15.6283538 L25.580485,4.29457876 C24.3848992,3.45129192 22.8901363,3.30849535 21.6255096,3.77342749 C21.6255096,3.77342749 20.1318692,4.25072784 18.886327,5.81418163 C18.886327,5.81418163 20.1492698,5.38860288 22.8429864,7.26294839 L39.8792425,19.5799959 L41.1539727,15.6283538" id="Fill-24" fill="#002856" fill-rule="nonzero"></path>
                        <path d="M39.4627521,20.8713491 L21.1326812,7.5018797 C19.5003978,6.35051206 17.6059836,6.45507963 15.9085885,7.72956713 C15.4151989,8.09499146 14.994218,8.49189843 14.7017766,8.80503897 C14.7017766,8.80503897 15.6576839,8.63188403 18.1094768,10.2684227 L38.1885831,24.8190559 L39.4627521,20.8713491" id="Fill-25" fill="#002856" fill-rule="nonzero"></path>
                        <path d="M27.1066812,52.1645992 L10.6031063,52.1679724 L0,19.4838612 L13.5011389,9.69667423 C13.5011389,9.69667423 14.5081254,9.37453866 16.4771935,10.7996934 C16.9627248,11.1516251 17.1086649,11.2584414 17.1086649,11.2584414 L26.5504251,18.1840751 L17.3298202,24.8606581 L21.3100545,37.1304815 L32.7949755,37.1304815 L28.9460872,49.1029058 C27.957624,51.7519509 27.1066812,52.1645992 27.1066812,52.1645992 Z" id="Fill-26" fill="#002856" fill-rule="nonzero"></path>
                        <path d="M203.164833,13.6500029 L203.397215,13.6500029 C203.667766,13.6500029 203.887798,13.5594901 203.887798,13.3396733 C203.887798,13.1457173 203.745788,13.0164134 203.435945,13.0164134 C203.306845,13.0164134 203.216474,13.0293438 203.164833,13.0422742 L203.164833,13.6500029 Z M203.151923,14.8519678 L202.661341,14.8519678 L202.661341,12.7319446 C202.854992,12.6931534 203.126103,12.6672926 203.474115,12.6672926 C203.874327,12.6672926 204.05563,12.7319446 204.209989,12.8224575 C204.32618,12.9129702 204.41655,13.0810654 204.41655,13.2879517 C204.41655,13.5206989 204.23637,13.7017245 203.978169,13.7787447 L203.978169,13.8051677 C204.184169,13.8821879 204.30036,14.0373527 204.36491,14.3218214 C204.430022,14.6450814 204.46819,14.7743854 204.520392,14.8519678 L203.990518,14.8519678 C203.925967,14.7743854 203.887798,14.5804293 203.823248,14.3347518 C203.783956,14.1025668 203.655417,13.9985615 203.383744,13.9985615 L203.151923,13.9985615 L203.151923,14.8519678 Z M201.848006,13.7399535 C201.848006,14.6838726 202.54515,15.4338356 203.499935,15.4338356 C204.430022,15.4338356 205.113695,14.6838726 205.113695,13.7528839 C205.113695,12.809527 204.430022,12.0466336 203.487586,12.0466336 C202.54515,12.0466336 201.848006,12.809527 201.848006,13.7399535 Z M203.487586,15.8863996 C202.274038,15.8863996 201.305782,14.9424805 201.305782,13.7399535 C201.305782,12.5638495 202.274038,11.6199304 203.487586,11.6199304 C204.713482,11.6199304 205.655918,12.5638495 205.655918,13.7399535 C205.655918,14.9424805 204.713482,15.8863996 203.487586,15.8863996 Z" id="Fill-27" fill="#00A1DF" fill-rule="nonzero"></path>
                    </g>
                </g>
            </g>
        </g>
    </g>
</svg>