<?xml version="1.0" encoding="UTF-8"?>
<svg width="64px" height="60px" viewBox="0 0 64 60" version="1.1" xmlns="http://www.w3.org/2000/svg" xmlns:xlink="http://www.w3.org/1999/xlink">
    <!-- Generator: Sketch 50.2 (55047) - http://www.bohemiancoding.com/sketch -->
    <title>printer_icon</title>
    <desc>Created with Sketch.</desc>
    <defs>
        <rect id="path-1" x="0" y="0" width="64" height="64"></rect>
    </defs>
    <g id="5.-Icons-&amp;-Assets" stroke="none" stroke-width="1" fill="none" fill-rule="evenodd">
        <g id="Icons" transform="translate(-697.000000, -1229.000000)">
            <g id="Utility-Icons" transform="translate(165.000000, 485.000000)">
                <g id="Group-Copy-14" transform="translate(467.000000, 702.000000)">
                    <g id="printer_icon" transform="translate(65.000000, 40.000000)">
                        <g id="printer">
                            <mask id="mask-2" fill="white">
                                <use xlink:href="#path-1"></use>
                            </mask>
                            <g id="Mask"></g>
                            <path d="M20,58.0007895 L44,58.0007895 L44,54.0015789 L20,54.0015789 L20,58.0007895 Z M20,49.998985 L44,49.998985 L44,45.9997744 L20,45.9997744 L20,49.998985 Z M48,14.001015 L48,22.0011278 L16,22.0011278 L16,14.001015 L16,2 L48,2 L48,14.001015 Z M16,49.998985 L16,42.0005639 L48,42.0005639 L48,49.998985 L48,62 L16,62 L16,49.998985 Z M0,22.0011278 C0,18.0002256 4,14.001015 8,14.001015 L12,14.001015 L12,22.0011278 L12,26.0003383 L52,26.0003383 L52,22.0011278 L52,14.001015 L56,14.001015 C60,14.001015 64,18.0002256 64,22.0011278 L64,42.0005639 C64,45.9997744 60,49.998985 56,49.998985 L52,49.998985 L52,42.0005639 L52,38.0013534 L12,38.0013534 L12,42.0005639 L12,49.998985 L8,49.998985 C4,49.998985 0,45.9997744 0,42.0005639 L0,22.0011278 Z" id="Page-1" fill="#282828" mask="url(#mask-2)"></path>
                        </g>
                    </g>
                </g>
            </g>
        </g>
    </g>
</svg>