<?xml version="1.0" encoding="UTF-8"?>
<svg width="40px" height="40px" viewBox="0 0 40 40" version="1.1" xmlns="http://www.w3.org/2000/svg" xmlns:xlink="http://www.w3.org/1999/xlink">
    <!-- Generator: Sketch 50.2 (55047) - http://www.bohemiancoding.com/sketch -->
    <title>icon/phone icon outline</title>
    <desc>Created with Sketch.</desc>
    <defs></defs>
    <g id="Symbols" stroke="none" stroke-width="1" fill="none" fill-rule="evenodd">
        <g id="Application-Header-with-logout" transform="translate(-1026.000000, -30.000000)" fill="#037FB0">
            <g id="icon/phone-icon-outline">
                <g transform="translate(1026.000000, 30.000000)">
                    <g id="phone-icon-outline">
                        <path d="M20,37 C29.3888407,37 37,29.3888407 37,20 C37,10.6111593 29.3888407,3 20,3 C10.6111593,3 3,10.6111593 3,20 C3,29.3888407 10.6111593,37 20,37 Z M20,40 C8.954305,40 0,31.045695 0,20 C0,8.954305 8.954305,0 20,0 C31.045695,0 40,8.954305 40,20 C40,31.045695 31.045695,40 20,40 Z" id="Oval" fill-rule="nonzero"></path>
                        <path d="M19.6931687,21.7678313 C18.3870643,20.6938544 17.5149681,19.3686171 17.0564809,18.6145542 L16.7144797,17.9698023 C16.8340605,17.8414991 17.7459701,16.8650158 18.1411497,16.3352022 C18.637762,15.6699106 17.9177445,15.0690519 17.9177445,15.0690519 C17.9177445,15.0690519 15.8917633,13.0427893 15.4300405,12.6408569 C14.9683177,12.2383618 14.4368159,12.4619077 14.4368159,12.4619077 C13.466382,13.0889334 12.4603552,13.6340815 12.400002,16.2558568 C12.3977511,18.7105003 14.2611024,21.2422382 16.2761103,23.202239 C18.2943539,25.4157511 21.0653943,27.6343279 23.7444277,27.6317956 C26.3659217,27.5720052 26.9109291,26.566119 27.5379548,25.5956852 C27.5379548,25.5956852 27.7616414,25.0646054 27.3595683,24.6024606 C26.9572139,24.1404564 24.9306699,22.1140531 24.9306699,22.1140531 C24.9306699,22.1140531 24.3302333,21.3938949 23.6648009,21.8909293 C23.1688921,22.2616299 22.2783663,23.0861752 22.0638242,23.2860862 C22.0642462,23.2867897 20.57455,22.492632 19.6931687,21.7678313 L19.6931687,21.7678313 Z" id="phone-icon"></path>
                    </g>
                </g>
            </g>
        </g>
    </g>
</svg>