<?xml version="1.0" encoding="UTF-8"?>
<svg width="64px" height="64px" viewBox="0 0 64 64" version="1.1" xmlns="http://www.w3.org/2000/svg" xmlns:xlink="http://www.w3.org/1999/xlink">
    <!-- Generator: Sketch 50.2 (55047) - http://www.bohemiancoding.com/sketch -->
    <title>info_line_icon</title>
    <desc>Created with Sketch.</desc>
    <defs>
        <rect id="path-1" x="0" y="0" width="64" height="64"></rect>
    </defs>
    <g id="5.-Icons-&amp;-Assets" stroke="none" stroke-width="1" fill="none" fill-rule="evenodd">
        <g id="Icons" transform="translate(-463.000000, -759.000000)">
            <g id="Utility-Icons" transform="translate(165.000000, 485.000000)">
                <g id="Group-Copy-6" transform="translate(233.000000, 234.000000)">
                    <g id="info_line_icon" transform="translate(65.000000, 40.000000)">
                        <g id="info-icon-default">
                            <mask id="mask-2" fill="white">
                                <use xlink:href="#path-1"></use>
                            </mask>
                            <g id="Mask"></g>
                            <g mask="url(#mask-2)" fill="#037FB0">
                                <path d="M32,59.2 C47.0221452,59.2 59.2,47.0221452 59.2,32 C59.2,16.9778548 47.0221452,4.8 32,4.8 C16.9778548,4.8 4.8,16.9778548 4.8,32 C4.8,47.0221452 16.9778548,59.2 32,59.2 Z M32,64 C14.326888,64 0,49.673112 0,32 C0,14.326888 14.326888,0 32,0 C49.673112,0 64,14.326888 64,32 C64,49.673112 49.673112,64 32,64 Z" id="Oval-2" fill-rule="nonzero"></path>
                                <path d="M37.996875,44.871875 L37.515625,46.840625 C36.0718678,47.4093778 34.919796,47.8432277 34.059375,48.1421875 C33.198954,48.4411473 32.2000057,48.590625 31.0625,48.590625 C29.3124912,48.590625 27.952609,48.1640668 26.9828125,47.3109375 C26.013016,46.4578082 25.528125,45.3750066 25.528125,44.0625 C25.528125,43.5520808 25.564583,43.0307318 25.6375,42.4984375 C25.710417,41.9661432 25.8270825,41.3645867 25.9875,40.69375 L27.78125,34.30625 C27.9416675,33.6937469 28.076562,33.1140652 28.1859375,32.5671875 C28.295313,32.0203098 28.35,31.5208356 28.35,31.06875 C28.35,30.2520793 28.1822933,29.6833349 27.846875,29.3625 C27.5114567,29.0416651 26.8697964,28.88125 25.921875,28.88125 C25.455206,28.88125 24.9776066,28.9541659 24.4890625,29.1 C24.0005184,29.2458341 23.5812517,29.3843743 23.23125,29.515625 L23.7125,27.546875 C24.8937559,27.0656226 26.0239529,26.6536475 27.103125,26.3109375 C28.1822971,25.9682275 29.2031202,25.796875 30.165625,25.796875 C31.9010503,25.796875 33.2390578,26.2161416 34.1796875,27.0546875 C35.1203172,27.8932334 35.590625,28.9833266 35.590625,30.325 C35.590625,30.6020847 35.5578128,31.0906215 35.4921875,31.790625 C35.4265622,32.4906285 35.3062509,33.1322888 35.13125,33.715625 L33.3375,40.08125 C33.1916659,40.5916692 33.0604173,41.1749967 32.94375,41.83125 C32.8270828,42.4875033 32.76875,42.9833317 32.76875,43.31875 C32.76875,44.1645876 32.9583314,44.7406235 33.3375,45.046875 C33.7166686,45.3531265 34.372912,45.50625 35.30625,45.50625 C35.7437522,45.50625 36.2395806,45.4296883 36.79375,45.2765625 C37.3479194,45.1234367 37.7489571,44.9885423 37.996875,44.871875 Z M38.45625,18.1625 C38.45625,19.2708389 38.0369834,20.2151003 37.1984375,20.9953125 C36.3598916,21.7755247 35.3500059,22.165625 34.16875,22.165625 C32.9874941,22.165625 31.9739626,21.7755247 31.128125,20.9953125 C30.2822874,20.2151003 29.859375,19.2708389 29.859375,18.1625 C29.859375,17.0541611 30.2822874,16.1062539 31.128125,15.31875 C31.9739626,14.5312461 32.9874941,14.1375 34.16875,14.1375 C35.3500059,14.1375 36.3598916,14.5312461 37.1984375,15.31875 C38.0369834,16.1062539 38.45625,17.0541611 38.45625,18.1625 Z" id="i"></path>
                            </g>
                        </g>
                    </g>
                </g>
            </g>
        </g>
    </g>
</svg>