<?xml version="1.0" encoding="UTF-8"?>
<svg width="60px" height="42px" viewBox="0 0 60 42" version="1.1" xmlns="http://www.w3.org/2000/svg" xmlns:xlink="http://www.w3.org/1999/xlink">
    <!-- Generator: Sketch 50.2 (55047) - http://www.bohemiancoding.com/sketch -->
    <title>creditcard_icon</title>
    <desc>Created with Sketch.</desc>
    <defs>
        <rect id="path-1" x="0" y="0" width="64" height="64"></rect>
        <polygon id="path-3" points="0 42 60 42 60 0 0 0"></polygon>
    </defs>
    <g id="5.-Icons-&amp;-Assets" stroke="none" stroke-width="1" fill="none" fill-rule="evenodd">
        <g id="Icons" transform="translate(-1165.000000, -2590.000000)">
            <g id="product-icons" transform="translate(165.000000, 2539.000000)">
                <g id="Group-Copy-18" transform="translate(933.000000, 0.000000)">
                    <g id="creditcard_icon" transform="translate(65.000000, 40.000000)">
                        <mask id="mask-2" fill="white">
                            <use xlink:href="#path-1"></use>
                        </mask>
                        <g id="Mask"></g>
                        <g id="Page-1" mask="url(#mask-2)">
                            <g transform="translate(2.000000, 11.000000)">
                                <path d="M5.45454545,1.82608696 C3.44909091,1.82608696 1.81818182,3.46408696 1.81818182,5.47826087 L1.81818182,31.0434783 C1.81818182,33.0576522 3.44909091,34.6956522 5.45454545,34.6956522 L49.0909091,34.6956522 C51.0963636,34.6956522 52.7272727,33.0576522 52.7272727,31.0434783 L52.7272727,5.47826087 C52.7272727,3.51156522 50.2272727,1.82608696 48.1818182,1.82608696 L5.45454545,1.82608696 Z M49.0909091,36.5217391 L5.45454545,36.5217391 C2.44727273,36.5217391 0,34.0638261 0,31.0434783 L0,5.47826087 C0,2.45791304 2.44727273,0 5.45454545,0 L48.1818182,0 C51.1236364,0 54.5454545,2.394 54.5454545,5.47826087 L54.5454545,31.0434783 C54.5454545,34.0638261 52.0981818,36.5217391 49.0909091,36.5217391 Z" id="Fill-1" stroke="none" fill="#282828" fill-rule="evenodd"></path>
                                <mask id="mask-4" fill="white">
                                    <use xlink:href="#path-3"></use>
                                </mask>
                                <g id="Clip-4" stroke="none" fill="none"></g>
                                <path d="M1.81818182,14.6086957 L52.7272727,14.6086957 L52.7272727,9.13043478 L1.81818182,9.13043478 L1.81818182,14.6086957 Z M53.6363636,16.4347826 L0.909090909,16.4347826 C0.407272727,16.4347826 0,16.0257391 0,15.5217391 L0,8.2173913 C0,7.7133913 0.407272727,7.30434783 0.909090909,7.30434783 L53.6363636,7.30434783 C54.1381818,7.30434783 54.5454545,7.7133913 54.5454545,8.2173913 L54.5454545,15.5217391 C54.5454545,16.0257391 54.1381818,16.4347826 53.6363636,16.4347826 Z" id="Fill-3" stroke="none" fill="#282828" fill-rule="evenodd" mask="url(#mask-4)"></path>
                                <path d="M17.2727273,25.5652174 L8.18181818,25.5652174 C7.68,25.5652174 7.27272727,25.1561739 7.27272727,24.6521739 C7.27272727,24.1481739 7.68,23.7391304 8.18181818,23.7391304 L17.2727273,23.7391304 C17.7745455,23.7391304 18.1818182,24.1481739 18.1818182,24.6521739 C18.1818182,25.1561739 17.7745455,25.5652174 17.2727273,25.5652174" id="Fill-5" stroke="none" fill="#282828" fill-rule="evenodd" mask="url(#mask-4)"></path>
                                <path d="M22.7272727,29.2173913 L8.18181818,29.2173913 C7.68,29.2173913 7.27272727,28.8083478 7.27272727,28.3043478 C7.27272727,27.8003478 7.68,27.3913043 8.18181818,27.3913043 L22.7272727,27.3913043 C23.2290909,27.3913043 23.6363636,27.8003478 23.6363636,28.3043478 C23.6363636,28.8083478 23.2290909,29.2173913 22.7272727,29.2173913" id="Fill-6" stroke="none" fill="#282828" fill-rule="evenodd" mask="url(#mask-4)"></path>
                                <path d="M53.6363636,5.47826087 C56.5781818,5.47826087 60,7.87226087 60,10.9565217 L60,36.5217391 C60,39.542087 57.5527273,42 54.5454545,42 L10.9090909,42 C7.90181818,42 5.45454545,39.542087 5.45454545,36.5217391 L7.27272727,36.5217391 C7.27272727,38.535913 8.90363636,40.173913 10.9090909,40.173913 L54.5454545,40.173913 C56.5509091,40.173913 58.1818182,38.535913 58.1818182,36.5217391 L58.1818182,10.9565217 C58.1818182,8.98982609 55.6818182,7.30434783 53.6363636,7.30434783 L53.6363636,5.47826087 Z" id="Fill-7" stroke="none" fill="#282828" fill-rule="evenodd" mask="url(#mask-4)"></path>
                            </g>
                        </g>
                    </g>
                </g>
            </g>
        </g>
    </g>
</svg>