<?xml version="1.0" encoding="UTF-8"?>
<svg width="98px" height="100px" viewBox="0 0 98 100" version="1.1" xmlns="http://www.w3.org/2000/svg" xmlns:xlink="http://www.w3.org/1999/xlink">
    <!-- Generator: Sketch 50.2 (55047) - http://www.bohemiancoding.com/sketch -->
    <title>EHL logo</title>
    <desc>Created with Sketch.</desc>
    <defs></defs>
    <g id="5.-Icons-&amp;-Assets" stroke="none" stroke-width="1" fill="none" fill-rule="evenodd">
        <g id="Assets" transform="translate(-1211.000000, -385.000000)" fill="#595959">
            <g id="EHL-logo" transform="translate(1211.000000, 385.000000)">
                <g id="equalhousing">
                    <path d="M49.5444444,0.197044335 L0.098989899,28.226601 L0.098989899,38.3497537 L7.67171717,38.3497537 L7.67171717,73.1527094 L90.2045455,73.1527094 L90.2045455,38.3497537 L97.9257576,38.3497537 L97.9257576,28.4975369 L49.5444444,0.197044335 L49.5444444,0.197044335 Z M80.6767677,64.2857143 L17.7191919,64.2857143 L17.7191919,29.3349754 L49.5444444,10.7389163 L80.6767677,29.3349754 L80.6767677,64.2857143 L80.6767677,64.2857143 Z" id="Shape"></path>
                    <polygon id="Shape" points="32.6171717 42.635468 32.6171717 34.0394089 65.5560606 34.0394089 65.5560606 42.635468"></polygon>
                    <polygon id="Shape" points="32.6171717 46.8472906 65.5560606 46.8472906 65.5560606 55.4433498 32.6171717 55.4433498"></polygon>
                    <path d="M56.35,88.8916256 L50.5590909,88.8916256 L50.5590909,99.8522167 L56.2015152,99.8522167 C60.7550505,99.8522167 63.3782828,98.8916256 63.3782828,94.5812808 C63.3782828,90.1477833 60.4828283,88.8916256 56.35,88.8916256 L56.35,88.8916256 Z M56.0530303,97.4876847 L53.5782828,97.4876847 L53.5782828,91.2561576 L56.3252525,91.2561576 C58.2555556,91.2561576 60.0373737,92.364532 60.0373737,94.5812808 C60.0621212,97.0689655 58.4040404,97.4876847 56.0530303,97.4876847 L56.0530303,97.4876847 Z" id="Shape"></path>
                    <path d="M89.9818182,95.270936 C92.0606061,95 93.0010101,94.1625616 93.0010101,92.364532 C93.0010101,89.8768473 91.7636364,88.8916256 88.719697,88.8916256 L80.7262626,88.8916256 L80.7262626,99.8522167 L83.7454545,99.8522167 L83.7454545,95.270936 L86.6409091,95.270936 L89.8085859,99.8522167 L93.1247475,99.8522167 L89.9818182,95.270936 L89.9818182,95.270936 Z M88.1752525,92.9310345 L83.770202,92.9310345 L83.770202,91.2561576 L88.3237374,91.2561576 C89.5611111,91.2561576 90.1055556,91.4039409 90.1055556,92.0935961 C90.1055556,92.9310345 89.6848485,92.9310345 88.1752525,92.9310345 L88.1752525,92.9310345 Z" id="Shape"></path>
                    <polygon id="Shape" points="33.9535354 88.8916256 33.9535354 99.8522167 36.8242424 99.8522167 36.8242424 93.2019704 42.6151515 99.8522167 46.0550505 99.8522167 46.0550505 88.8916256 43.1843434 88.8916256 43.1843434 95.6896552 37.3934343 88.8916256"></polygon>
                    <polygon id="Shape" points="5.54343434 88.8916256 5.54343434 99.8522167 16.4075758 99.8522167 16.4075758 97.4876847 8.56262626 97.364532 8.56262626 88.8916256"></polygon>
                    <polygon id="Shape" points="19.5257576 99.8522167 30.1424242 99.8522167 30.1424242 97.4876847 22.6934343 97.4876847 22.6934343 95.1477833 28.9050505 95.1477833 28.9050505 92.9310345 22.6934343 92.9310345 22.6934343 91.2561576 30.1424242 91.2561576 30.1424242 88.8916256 19.5257576 88.8916256"></polygon>
                    <polygon id="Shape" points="66.7686869 88.8916256 66.7686869 99.8522167 77.2368687 99.7044335 77.2368687 97.4876847 69.7878788 97.4876847 69.7878788 95.1477833 76.1232323 95.1477833 76.1232323 92.9310345 69.7878788 92.9310345 69.7878788 91.2561576 77.2368687 91.2561576 77.2368687 88.8916256"></polygon>
                    <path d="M32.2212121,76.3546798 L29.870202,76.3546798 L27.1232323,86.2068966 L29.1277778,86.2068966 L29.7464646,83.9901478 L32.2212121,83.9901478 L32.839899,86.2068966 L34.9929293,86.2068966 L32.2212121,76.3546798 L32.2212121,76.3546798 Z M30.1671717,82.3399015 L30.9838384,78.4482759 L31.9489899,82.3399015 L30.1671717,82.3399015 L30.1671717,82.3399015 Z" id="Shape"></path>
                    <path d="M17.8181818,84.8029557 C18.2388889,83.9655172 18.3626263,83.4236453 18.3626263,82.1674877 L18.3626263,80.0985222 C18.3626263,77.7339901 17.8181818,76.0837438 15.0464646,76.0837438 C12.5717172,76.0837438 11.730303,77.4630542 11.730303,79.9753695 L11.730303,82.6108374 C11.730303,85.9359606 13.6606061,86.0837438 19.3030303,86.0837438 L19.4515152,85.3940887 L17.8181818,84.8029557 L17.8181818,84.8029557 Z M16.3085859,82.5862069 C16.3085859,84.3842365 16.160101,84.8029557 15.0712121,84.8029557 C14.1060606,84.8029557 13.8338384,84.2364532 13.8338384,82.4384236 L13.8338384,80.0738916 C13.8338384,78.2758621 13.9823232,77.7093596 15.219697,77.7093596 C16.1848485,77.7093596 16.3333333,77.9802956 16.3333333,79.9261084 L16.3333333,82.5862069 L16.3085859,82.5862069 Z" id="Shape"></path>
                    <path d="M67.9813131,83.5714286 C67.9813131,85.0985222 68.9464646,86.3546798 71.1489899,86.3546798 C72.9308081,86.3546798 74.5888889,85.0985222 74.5888889,83.5714286 C74.5888889,81.2068966 70.1838384,80.0985222 70.1838384,78.5714286 C70.1838384,78.0049261 70.7282828,77.7339901 71.2974747,77.7339901 C72.1141414,77.7339901 72.5348485,78.3004926 72.9555556,79.1133005 L74.3414141,78.546798 C74.1929293,77.1674877 73.2277778,76.0591133 71.1737374,76.0591133 C69.5156566,76.0591133 68.1545455,76.8965517 68.1545455,78.546798 C68.1545455,81.3300493 72.559596,82.0197044 72.559596,83.817734 C72.559596,84.5073892 72.1388889,84.7783251 71.3222222,84.7783251 C70.5055556,84.7783251 69.9363636,84.2118227 69.6641414,83.2512315 L67.9813131,83.5714286 L67.9813131,83.5714286 L67.9813131,83.5714286 Z" id="Shape"></path>
                    <path d="M56.35,76.0837438 C54.2712121,76.0837438 53.0338384,77.1921182 53.0338384,79.8275862 L53.0338384,83.0295567 C53.0338384,85.3940887 53.7267677,86.3546798 56.35,86.3546798 C58.9732323,86.3546798 59.6661616,85.2463054 59.6661616,82.6108374 L59.6661616,79.5566502 C59.6661616,77.044335 58.9732323,76.0837438 56.35,76.0837438 L56.35,76.0837438 Z M57.5873737,82.5862069 C57.5873737,84.2610837 57.1666667,84.8029557 56.35,84.8029557 C55.2363636,84.8029557 55.1126263,84.1133005 55.1126263,82.7339901 L55.1126263,79.679803 C55.1126263,78.4236453 55.2611111,77.6108374 56.35,77.6108374 C57.4636364,77.6108374 57.5873737,78.5714286 57.5873737,79.679803 L57.5873737,82.5862069 L57.5873737,82.5862069 Z" id="Shape"></path>
                    <path d="M86.3934343,82.5862069 C86.3934343,85.4926108 87.210101,86.3300493 89.9818182,86.3300493 C92.110101,86.3300493 92.7287879,85.320197 92.7287879,84.2610837 L92.7287879,81.0837438 L89.8333333,81.0837438 L89.8333333,82.6108374 L90.7984848,82.6108374 L90.7984848,83.7192118 C90.7984848,84.5566502 90.5262626,84.9753695 89.8333333,84.9753695 C88.4474747,84.9753695 88.3237374,84.0147783 88.3237374,82.6108374 L88.3237374,80.3940887 C88.3237374,78.7192118 88.4722222,77.6108374 89.8333333,77.6108374 C90.7984848,77.6108374 91.3429293,78.3004926 91.4914141,79.2857143 L92.8772727,78.7192118 C92.7287879,77.044335 91.639899,76.0837438 89.709596,76.0837438 C86.9626263,76.0837438 86.3934343,77.6108374 86.3934343,79.679803 L86.3934343,82.5862069 L86.3934343,82.5862069 L86.3934343,82.5862069 Z" id="Shape"></path>
                    <path d="M60.5323232,76.3546798 L60.5323232,82.044335 C60.5323232,85.3694581 61.1015152,86.4285714 63.9969697,86.4285714 C66.1994949,86.4285714 67.0161616,85.2216749 67.0161616,82.3152709 L67.0161616,76.3546798 L65.0858586,76.3546798 L65.0858586,82.044335 C65.0858586,84.2610837 64.9373737,84.8275862 63.8484848,84.8275862 C62.7348485,84.8275862 62.6111111,83.9901478 62.6111111,81.9211823 L62.6111111,76.3546798 L60.5323232,76.3546798 L60.5323232,76.3546798 L60.5323232,76.3546798 Z" id="Shape"></path>
                    <polygon id="Shape" points="78.919697 76.3546798 78.919697 86.2068966 80.5777778 86.2068966 80.5777778 79.5320197 82.9287879 86.2068966 85.4035354 86.2068966 85.4035354 76.3546798 83.7454545 76.3546798 83.7454545 82.4630542 81.5429293 76.3546798"></polygon>
                    <path d="M20.3671717,76.3546798 L20.3671717,82.3152709 C20.3671717,85.0985222 20.6393939,86.3300493 23.3863636,86.3300493 C26.5540404,86.3300493 26.7025253,84.8029557 26.7025253,82.0197044 L26.7025253,76.3546798 L24.7722222,76.3546798 L24.7722222,82.1921182 C24.7722222,84.137931 24.5,84.679803 23.5348485,84.679803 C22.4212121,84.679803 22.2974747,84.1133005 22.2974747,81.8965517 L22.2974747,76.3546798 L20.3671717,76.3546798 L20.3671717,76.3546798 L20.3671717,76.3546798 Z" id="Shape"></path>
                    <polygon id="Shape" points="45.4116162 76.3546798 45.4116162 86.2068966 47.3419192 86.2068966 47.3419192 81.773399 49.6929293 81.773399 49.6929293 86.2068966 51.6232323 86.2068966 51.6232323 76.3546798 49.6929293 76.3546798 49.6929293 80.0985222 47.3419192 80.0985222 47.3419192 76.3546798"></polygon>
                    <polygon id="Shape" points="5.39494949 76.3546798 5.39494949 86.2068966 10.3444444 86.2068966 10.3444444 84.679803 7.32525253 84.679803 7.32525253 81.8965517 10.0722222 81.8965517 10.0722222 80.5172414 7.32525253 80.5172414 7.32525253 77.8817734 10.3444444 77.8817734 10.3444444 76.3546798"></polygon>
                    <polygon id="Shape" points="35.8590909 76.3546798 35.8590909 86.2068966 40.4126263 86.2068966 40.4126263 84.679803 37.5171717 84.679803 37.5171717 76.3546798"></polygon>
                    <polygon id="Shape" points="75.6035354 76.3546798 75.6035354 86.2068966 77.410101 86.2068966 77.410101 76.3546798"></polygon>
                </g>
            </g>
        </g>
    </g>
</svg>